<svg width="475" height="571" viewBox="0 0 475 571" fill="none" xmlns="http://www.w3.org/2000/svg">
<path d="M0 30C0 13.4315 13.4315 0 30 0H445C461.569 0 475 13.4315 475 30V541C475 557.569 461.569 571 445 571H30C13.4315 571 0 557.569 0 541V30Z" fill="url(#paint0_radial_606_540)" fill-opacity="0.35" style="mix-blend-mode:darken"/>
<path d="M343.263 330.883L343.275 331.012L341.737 483.658L124.213 480.765V476.173L334.496 477.865L337.838 331.24V331.234C339.65 331.166 341.46 331.055 343.263 330.883Z" fill="#171717"/>
<path d="M339.053 278.768L339.595 254.105L339.816 254.111L344.051 254.074L343.854 273.807L344.47 274.097C342.916 275.927 341.121 277.538 339.133 278.885L339.053 278.768Z" fill="#171717"/>
<path d="M263.512 114.595C258.354 114.632 253.153 112.047 250.303 107.72C250.178 110.034 249.519 112.288 248.378 114.304C247.236 116.321 245.643 118.046 243.723 119.343C241.802 120.641 239.608 121.476 237.311 121.783C235.014 122.09 232.677 121.86 230.484 121.113C232.267 122.961 233.601 125.194 234.382 127.64C235.163 130.086 235.371 132.679 234.99 135.218C234.608 137.757 233.648 140.175 232.182 142.283C230.717 144.391 228.786 146.134 226.539 147.377C228.409 148.65 229.889 150.418 230.814 152.483C231.739 154.548 232.072 156.829 231.777 159.072C231.638 159.998 231.386 160.904 231.025 161.767C230.341 163.42 229.304 164.903 227.986 166.112C226.668 167.321 225.101 168.227 223.395 168.765C228.442 174.046 230.018 182.245 227.691 189.128C227.235 190.502 226.615 191.816 225.844 193.042C221.179 200.453 211.226 204.047 202.898 201.327C204.339 208.479 203.963 216.191 200.591 222.661C197.218 229.131 190.545 234.091 183.252 234.233C175.958 234.375 168.621 228.927 167.704 221.695C163.55 227.825 155.099 230.65 148.094 228.249C146.548 227.715 145.095 226.945 143.786 225.965C139.169 222.563 136.253 216.794 136.633 211.039C137.114 203.647 142.979 196.938 150.236 195.474C145.06 193.208 142.296 186.998 143.065 181.403C143.835 175.808 147.596 170.933 152.255 167.732C156.914 164.532 162.412 162.796 167.907 161.479C164.775 158.276 162.622 154.245 161.702 149.861C160.781 145.477 161.131 140.921 162.709 136.728C164.288 132.535 167.031 128.881 170.615 126.193C174.199 123.506 178.476 121.896 182.943 121.555C175.871 118.662 172.165 109.946 173.962 102.517C175.759 95.088 182.247 89.3145 189.596 87.2034C196.946 85.0923 204.953 86.2927 211.976 89.3087C211.25 79.2081 219.762 69.3481 229.862 68.591C239.963 67.8338 249.848 76.3277 250.623 86.4264C252.762 81.9209 258.231 79.6372 263.18 80.2219C268.128 80.8065 272.529 83.804 275.908 87.4664C281.343 93.3627 284.624 101.703 282.839 109.52C281.054 117.337 273.268 123.831 265.344 122.63L264.469 122.852C263.823 120.147 263.501 117.375 263.512 114.595Z" fill="#171717"/>
<path d="M344.469 274.096L343.853 273.807L344.048 254.074L339.813 254.111L339.591 254.105L339.702 248.897L125.946 259.761L124.439 303.923L124.279 303.948C123.9 303.602 123.408 303.407 122.894 303.4C121.485 303.407 120.592 304.89 120.038 306.188C118.227 310.415 116.853 314.816 115.939 319.323C114.291 327.402 114.097 335.711 115.367 343.858C115.681 345.846 115.877 348.48 116.831 350.511L116.388 350.566C108.109 347.908 103.013 341.187 99.1048 333.411C89.6078 314.503 91.7986 291.169 101.216 272.218C110.633 253.267 126.507 238.224 143.772 225.982L143.784 225.963C145.093 226.942 146.547 227.713 148.093 228.247C155.097 230.647 163.547 227.822 167.703 221.692C168.62 228.925 175.965 234.372 183.25 234.231C190.536 234.09 197.222 229.128 200.589 222.659C203.956 216.19 204.338 208.478 202.897 201.324C211.225 204.046 221.178 200.45 225.843 193.04C226.613 191.814 227.233 190.5 227.69 189.125L227.887 189.193C229.967 188.424 232.043 187.652 234.115 186.879L234.811 186.756C234.908 187.328 235.014 187.901 235.118 188.473C235.34 189.667 235.582 190.856 235.845 192.037C238.08 202.027 242.283 212.022 250.132 218.59C252.274 220.381 255.235 221.938 257.74 220.707C259.839 219.667 260.639 217.111 261.008 214.805C262.091 207.871 261.162 200.772 258.331 194.351C256.915 191.151 255.019 188.104 254.01 184.78C253.795 184.101 253.626 183.408 253.505 182.706C253.462 182.472 253.431 182.244 253.4 182.011H253.413C273.046 183.712 292.713 185.421 312.119 188.88C323.715 190.942 335.293 193.662 346.002 198.574C356.712 203.486 366.559 210.736 373.14 220.504C381.474 232.876 383.948 248.165 386.004 262.937C387.204 271.523 388.33 280.189 387.776 288.843C387.223 297.498 384.896 306.225 379.75 313.205C373.016 322.339 362.06 327.632 350.913 329.805C348.383 330.292 345.829 330.652 343.263 330.882C341.459 331.054 339.649 331.165 337.834 331.233C330.903 331.491 323.905 331.11 316.968 330.728C314.236 330.582 311.306 330.359 309.151 328.666C307.034 326.998 306.197 324.376 305.858 321.631C305.714 320.386 305.635 319.135 305.625 317.882C305.501 311.18 305.514 304.477 305.662 297.774C305.692 296.511 305.735 295.22 305.883 293.946C306.154 291.496 306.782 289.126 308.345 287.267C312.567 282.226 320.44 283.778 326.989 283.26C331.347 282.878 335.531 281.371 339.133 278.887C341.121 277.539 342.916 275.928 344.469 274.096Z" fill="#8FC1A9" fill-opacity="0.69"/>
<path d="M234.811 186.757L234.116 186.88C232.042 187.649 229.966 188.421 227.887 189.194L227.69 189.126C230.016 182.245 228.441 174.046 223.394 168.764C225.1 168.225 226.667 167.32 227.985 166.111C229.303 164.902 230.341 163.418 231.024 161.766C232.718 170.021 233.383 178.459 234.811 186.757Z" fill="#171717"/>
<path d="M156.507 274.623C156.614 274.639 156.715 274.685 156.797 274.755C156.879 274.825 156.94 274.916 156.973 275.02C157.006 275.122 157.009 275.233 156.982 275.337C156.955 275.442 156.899 275.537 156.821 275.612L152.027 280.243C151.959 280.307 151.908 280.387 151.878 280.476C151.848 280.565 151.841 280.66 151.857 280.752L152.955 287.326C152.973 287.433 152.96 287.543 152.919 287.642C152.877 287.742 152.809 287.829 152.721 287.892C152.633 287.955 152.529 287.992 152.421 287.999C152.313 288.006 152.205 287.983 152.11 287.932L146.222 284.804C146.14 284.759 146.048 284.735 145.954 284.734C145.861 284.733 145.769 284.756 145.686 284.799L139.767 287.875C139.671 287.924 139.563 287.946 139.455 287.938C139.348 287.929 139.245 287.891 139.158 287.827C139.071 287.763 139.004 287.676 138.963 287.576C138.923 287.476 138.911 287.367 138.93 287.261L140.089 280.695C140.105 280.602 140.099 280.508 140.07 280.418C140.041 280.328 139.991 280.247 139.924 280.181L135.174 275.512C135.096 275.436 135.042 275.34 135.016 275.235C134.991 275.129 134.995 275.019 135.029 274.916C135.063 274.813 135.125 274.722 135.209 274.652C135.292 274.583 135.393 274.538 135.5 274.523L142.103 273.594C142.196 273.581 142.284 273.546 142.36 273.491C142.435 273.436 142.497 273.364 142.539 273.281L145.516 267.321C145.564 267.224 145.639 267.143 145.731 267.086C145.823 267.029 145.93 266.999 146.038 267C146.146 267 146.252 267.031 146.344 267.089C146.436 267.146 146.51 267.228 146.558 267.326L149.478 273.316C149.52 273.4 149.581 273.472 149.657 273.528C149.733 273.583 149.821 273.62 149.914 273.634L156.507 274.623Z" fill="#8FC1A9"/>
<path d="M244.389 131.11C243.642 130.383 242.66 129.949 241.62 129.884C240.58 129.82 239.551 130.13 238.72 130.759" stroke="#171717" stroke-width="3.8" stroke-linecap="round" stroke-linejoin="round"/>
<path d="M257.886 132.075C258.158 131.704 258.506 131.395 258.907 131.169C259.308 130.943 259.752 130.805 260.211 130.764C260.669 130.723 261.132 130.78 261.566 130.932C262.001 131.084 262.398 131.327 262.73 131.644" stroke="#171717" stroke-width="3.8" stroke-linecap="round" stroke-linejoin="round"/>
<path d="M250.519 148.337C251.854 149.02 253.608 148.275 254.384 146.995C255.16 145.715 255.129 144.065 254.698 142.625C254.187 141.212 253.552 139.846 252.803 138.543C250.494 133.96 249.422 128.853 249.692 123.728C253.41 123.445 257.128 123.164 260.845 122.885" stroke="#171717" stroke-width="3.8" stroke-linecap="round" stroke-linejoin="round"/>
<path d="M237.667 156.407C237.958 157.331 238.458 158.176 239.128 158.876C239.798 159.576 240.62 160.112 241.53 160.444C242.441 160.775 243.415 160.893 244.378 160.787C245.341 160.682 246.267 160.356 247.084 159.835" stroke="#171717" stroke-width="3.8" stroke-linecap="round" stroke-linejoin="round"/>
<path d="M263.512 114.447V114.593C263.502 117.375 263.825 120.149 264.472 122.855C265.309 126.622 266.559 130.346 267.593 134.075C269.384 140.539 270.509 147.641 267.863 153.806C265.758 158.712 261.555 162.355 258.348 166.627C255.036 171.047 252.722 176.562 253.399 182.008C253.429 182.242 253.461 182.47 253.503 182.704C253.624 183.406 253.793 184.099 254.008 184.778C255.018 188.102 256.913 191.149 258.329 194.349C261.16 200.77 262.09 207.869 261.006 214.802C260.637 217.11 259.837 219.665 257.738 220.705C255.233 221.936 252.272 220.379 250.131 218.588C242.283 212.02 238.078 202.024 235.843 192.035C235.578 190.853 235.336 189.665 235.117 188.471C235.012 187.899 234.907 187.326 234.809 186.754C233.381 178.456 232.717 170.018 231.024 161.764C231.024 161.752 231.018 161.733 231.018 161.721" stroke="#171717" stroke-width="3.8" stroke-linecap="round" stroke-linejoin="round"/>
<path d="M267.642 113.975C266.301 114.377 264.911 114.587 263.511 114.596C258.353 114.633 253.152 112.048 250.302 107.721C250.256 107.66 250.213 107.596 250.173 107.53" stroke="#171717" stroke-width="3.8" stroke-linecap="round" stroke-linejoin="round"/>
<path d="M250.279 105.683C250.333 106.361 250.342 107.041 250.304 107.72C250.179 110.034 249.52 112.288 248.378 114.304C247.237 116.321 245.643 118.046 243.723 119.343C241.803 120.641 239.608 121.476 237.312 121.783C235.015 122.09 232.678 121.861 230.485 121.113C232.267 122.961 233.601 125.194 234.382 127.64C235.164 130.086 235.372 132.679 234.99 135.218C234.609 137.757 233.648 140.175 232.183 142.283C230.717 144.391 228.786 146.134 226.539 147.377C228.409 148.65 229.89 150.418 230.814 152.483C231.739 154.548 232.072 156.829 231.777 159.072C231.638 159.998 231.386 160.904 231.025 161.767C230.341 163.42 229.304 164.903 227.986 166.112C226.668 167.321 225.101 168.227 223.395 168.765C228.442 174.046 230.018 182.245 227.691 189.128C227.235 190.502 226.615 191.816 225.844 193.042C221.179 200.453 211.226 204.047 202.898 201.327C204.339 208.479 203.963 216.191 200.591 222.661C197.218 229.131 190.543 234.088 183.253 234.23C175.964 234.372 168.623 228.925 167.706 221.692C163.551 227.823 155.101 230.648 148.096 228.247C146.55 227.713 145.096 226.942 143.787 225.963C139.17 222.561 136.254 216.792 136.635 211.037C137.115 203.645 142.981 196.936 150.237 195.471C145.061 193.206 142.297 186.996 143.067 181.401C143.836 175.806 147.597 170.931 152.256 167.73C156.915 164.529 162.413 162.793 167.908 161.476C164.777 158.273 162.625 154.243 161.704 149.859C160.785 145.475 161.134 140.92 162.713 136.728C164.292 132.536 167.034 128.881 170.617 126.194C174.2 123.506 178.477 121.897 182.943 121.555C175.871 118.662 172.166 109.946 173.963 102.517C175.76 95.088 182.247 89.3145 189.597 87.2034C196.946 85.0924 204.954 86.2927 211.977 89.3087C211.25 79.2081 219.763 69.3481 229.863 68.591C239.963 67.8338 249.848 76.3277 250.624 86.4264C252.76 81.9209 258.231 79.6372 263.18 80.2219C268.129 80.8065 272.529 83.804 275.909 87.4664C281.344 93.3627 284.624 101.703 282.839 109.52C281.054 117.337 273.269 123.831 265.344 122.63" stroke="#171717" stroke-width="3.8" stroke-linecap="round" stroke-linejoin="round"/>
<path d="M235.402 188.418C238.352 190.007 241.76 190.53 245.05 189.896C248.341 189.262 251.312 187.512 253.461 184.94" stroke="#171717" stroke-width="3.8" stroke-linecap="round" stroke-linejoin="round"/>
<path d="M227.886 189.195C229.967 188.426 232.043 187.654 234.115 186.881" stroke="#171717" stroke-width="3.8" stroke-linecap="round" stroke-linejoin="round"/>
<path d="M143.772 225.983C126.507 238.226 110.633 253.269 101.215 272.22C91.7981 291.171 89.6049 314.505 99.1043 333.413C103.013 341.189 108.109 347.909 116.388 350.568" stroke="#171717" stroke-width="3.8" stroke-linecap="round" stroke-linejoin="round"/>
<path d="M253.412 182.011C273.045 183.712 292.712 185.421 312.118 188.88C323.714 190.942 335.292 193.662 346.001 198.574C356.711 203.486 366.558 210.736 373.139 220.504C381.473 232.876 383.947 248.165 386.003 262.937C387.203 271.523 388.329 280.189 387.775 288.843C387.222 297.498 384.895 306.227 379.749 313.205C373.016 322.342 362.06 327.633 350.913 329.805C348.382 330.293 345.829 330.653 343.262 330.882C341.459 331.055 339.649 331.166 337.833 331.233C330.903 331.492 323.905 331.11 316.968 330.728C314.235 330.583 311.305 330.359 309.151 328.666C307.033 326.998 306.197 324.376 305.858 321.631C305.714 320.387 305.635 319.136 305.624 317.883C305.501 311.18 305.513 304.478 305.661 297.775C305.692 296.511 305.735 295.22 305.883 293.946C306.153 291.496 306.781 289.127 308.345 287.268C312.567 282.227 320.439 283.778 326.988 283.261C331.347 282.878 335.531 281.371 339.132 278.887C341.12 277.54 342.915 275.929 344.469 274.098C346.463 271.759 348.003 269.068 349.011 266.164" stroke="#171717" stroke-width="3.8" stroke-linecap="round" stroke-linejoin="round"/>
<path d="M122.703 354.839L118.561 476.13L124.211 476.173L334.492 477.866L337.834 331.24" stroke="#171717" stroke-width="3.8" stroke-linecap="round" stroke-linejoin="round"/>
<path d="M339.053 278.768L339.594 254.104L339.705 248.897L125.947 259.761L124.439 303.923" stroke="#171717" stroke-width="3.8" stroke-linecap="round" stroke-linejoin="round"/>
<path d="M343.853 273.807L344.051 254.074L339.816 254.111" stroke="#171717" stroke-width="3.8" stroke-linecap="round" stroke-linejoin="round"/>
<path d="M124.211 476.419V480.764L341.736 483.658L343.275 331.013" stroke="#171717" stroke-width="3.8" stroke-linecap="round" stroke-linejoin="round"/>
<path d="M280.617 311.71C277.613 311.55 274.855 311.564 269.391 312.128C267.933 312.274 266.424 312.461 265.174 313.224C263.925 313.987 263.002 315.495 263.389 316.905C263.972 319.046 266.775 319.477 268.997 319.484C284.157 319.545 290.084 320.832 305.237 320.893" stroke="#171717" stroke-width="3.8" stroke-linecap="round" stroke-linejoin="round"/>
<path d="M281.22 311.747C281.042 311.735 280.863 311.723 280.686 311.717" stroke="#171717" stroke-width="3.8" stroke-linecap="round" stroke-linejoin="round"/>
<path d="M282.247 311.809C282.038 311.797 281.822 311.779 281.619 311.772" stroke="#171717" stroke-width="3.8" stroke-linecap="round" stroke-linejoin="round"/>
<path d="M283.024 311.858C282.778 311.839 282.544 311.827 282.311 311.814" stroke="#171717" stroke-width="3.8" stroke-linecap="round" stroke-linejoin="round"/>
<path d="M290.446 312.222L289.925 312.205C287.568 312.131 285.722 312.032 284.14 311.928" stroke="#171717" stroke-width="3.8" stroke-linecap="round" stroke-linejoin="round"/>
<path d="M284.137 311.926C285.799 312.012 287.677 312.11 289.923 312.203" stroke="#171717" stroke-width="3.8" stroke-linecap="round" stroke-linejoin="round"/>
<path d="M284.137 311.926L283.565 311.889C283.503 311.889 283.448 311.883 283.386 311.883C283.371 311.878 283.354 311.876 283.338 311.877L283.024 311.858" stroke="#171717" stroke-width="3.8" stroke-linecap="round" stroke-linejoin="round"/>
<path d="M282.31 311.815C282.543 311.834 282.778 311.846 283.023 311.859" stroke="#171717" stroke-width="3.8" stroke-linecap="round" stroke-linejoin="round"/>
<path d="M282.311 311.816C282.291 311.811 282.269 311.809 282.248 311.81" stroke="#171717" stroke-width="3.8" stroke-linecap="round" stroke-linejoin="round"/>
<path d="M281.62 311.772C281.823 311.791 282.033 311.803 282.248 311.809" stroke="#171717" stroke-width="3.8" stroke-linecap="round" stroke-linejoin="round"/>
<path d="M281.62 311.772C281.485 311.766 281.349 311.76 281.22 311.747" stroke="#171717" stroke-width="3.8" stroke-linecap="round" stroke-linejoin="round"/>
<path d="M280.685 311.719C280.863 311.731 281.035 311.744 281.219 311.749" stroke="#171717" stroke-width="3.8" stroke-linecap="round" stroke-linejoin="round"/>
<path d="M280.686 311.718C280.667 311.718 280.642 311.712 280.617 311.712" stroke="#171717" stroke-width="3.8" stroke-linecap="round" stroke-linejoin="round"/>
<path d="M274.456 303.165C272.056 303.359 269.322 303.682 265.537 304.223C263.66 304.494 261.247 305.43 261.463 307.313C261.666 309.055 263.925 310.797 265.673 310.865C272.757 311.148 276.235 311.425 280.617 311.708" stroke="#171717" stroke-width="3.8" stroke-linecap="round" stroke-linejoin="round"/>
<path d="M282.119 302.829C279.355 302.878 277.133 302.946 274.538 303.162" stroke="#171717" stroke-width="3.8" stroke-linecap="round" stroke-linejoin="round"/>
<path d="M192.98 386H180.868C180.371 385.999 179.896 385.806 179.546 385.462C179.196 385.119 178.999 384.654 179 384.168V354.827C179 354.342 179.196 353.878 179.547 353.535C179.897 353.193 180.372 353 180.868 353H209.132C209.628 353 210.103 353.193 210.453 353.535C210.803 353.878 211 354.342 211 354.827V362.639" stroke="#171717" stroke-width="3.8" stroke-linecap="round" stroke-linejoin="round"/>
<path d="M282.223 302.83C284.702 302.733 287.288 302.664 289.929 302.701C286.767 302.768 284.337 302.799 282.223 302.83Z" stroke="#171717" stroke-width="3.8" stroke-linecap="round" stroke-linejoin="round"/>
<path d="M282.224 302.829C282.189 302.835 282.153 302.835 282.119 302.829" stroke="#171717" stroke-width="3.8" stroke-linecap="round" stroke-linejoin="round"/>
<path d="M274.536 303.162C276.893 303.081 279.441 302.94 282.117 302.829" stroke="#171717" stroke-width="3.8" stroke-linecap="round" stroke-linejoin="round"/>
<path d="M274.537 303.16C274.51 303.165 274.482 303.168 274.455 303.167" stroke="#171717" stroke-width="3.8" stroke-linecap="round" stroke-linejoin="round"/>
<path d="M306.006 294.125C305.963 294.064 305.926 294.002 305.884 293.947C301.641 287.747 296.075 282.567 289.585 278.781C288.022 277.863 285.578 277.266 284.774 278.885C284.202 280.036 285.021 281.359 285.808 282.375C288.627 286.031 291.446 289.685 294.264 293.337C282.625 292.574 280.126 292.02 268.653 294.125C266.801 294.469 264.899 294.87 263.348 295.928C261.797 296.987 259.722 299.381 261.034 300.729C263.397 303.148 268.266 303.376 274.458 303.166" stroke="#171717" stroke-width="3.8" stroke-linecap="round" stroke-linejoin="round"/>
<path d="M138.663 341.433C141.649 340.873 144.663 340.479 147.693 340.251C149.248 340.134 150.93 340.085 152.254 340.916C154.543 342.356 154.642 345.902 153.097 348.124C151.552 350.345 148.917 351.515 146.357 352.383C140.228 354.439 133.78 355.373 127.319 355.14C125.787 355.095 124.262 354.907 122.765 354.58C120.986 354.161 119.275 353.466 118.068 352.302C117.551 351.785 117.131 351.178 116.831 350.511C115.877 348.48 115.68 345.846 115.366 343.858C114.097 335.711 114.29 327.402 115.939 319.323C116.853 314.817 118.226 310.415 120.038 306.188C120.592 304.89 121.484 303.406 122.894 303.4C123.407 303.407 123.9 303.602 124.279 303.948C124.67 304.29 124.966 304.727 125.141 305.216C125.418 306.206 125.493 307.243 125.362 308.263C124.986 314.005 124.613 319.748 124.242 325.491C131.171 323.184 138.44 322.066 145.742 322.186C147.783 322.216 150.365 322.777 150.765 324.783C150.992 325.947 150.297 327.141 149.337 327.836C148.33 328.471 147.212 328.911 146.044 329.135C140.646 330.501 135.244 331.872 129.837 333.246" stroke="#171717" stroke-width="3.8" stroke-linecap="round" stroke-linejoin="round"/>
<path d="M138.663 341.434C136.189 342.055 133.704 342.633 131.209 343.169C133.665 342.481 136.152 341.895 138.663 341.434Z" stroke="#171717" stroke-width="3.8" stroke-linecap="round" stroke-linejoin="round"/>
<path d="M128.735 333.524C129.105 333.432 129.468 333.339 129.837 333.247C135.356 331.902 140.98 331.027 146.647 330.631C148.037 330.534 149.478 330.471 150.801 330.926C152.125 331.382 153.312 332.478 153.478 333.862C153.624 335.155 152.863 336.41 151.829 337.198C150.748 337.926 149.547 338.458 148.281 338.768C145.099 339.728 141.892 340.617 138.659 341.433" stroke="#171717" stroke-width="3.8" stroke-linecap="round" stroke-linejoin="round"/>
<path d="M152.109 287.932L146.221 284.804C146.139 284.759 146.047 284.735 145.954 284.735C145.86 284.734 145.768 284.756 145.685 284.799L139.767 287.875C139.671 287.924 139.563 287.946 139.455 287.938C139.348 287.929 139.245 287.891 139.158 287.827C139.071 287.763 139.003 287.676 138.963 287.576C138.923 287.476 138.911 287.367 138.93 287.261L140.089 280.695C140.105 280.603 140.098 280.508 140.069 280.418C140.041 280.328 139.991 280.247 139.924 280.182L135.174 275.512C135.096 275.436 135.042 275.34 135.016 275.234C134.991 275.129 134.995 275.019 135.029 274.916C135.063 274.813 135.125 274.722 135.209 274.652C135.292 274.583 135.393 274.538 135.5 274.523L142.103 273.594C142.196 273.581 142.283 273.546 142.359 273.491C142.435 273.436 142.497 273.364 142.539 273.281L145.516 267.321C145.564 267.224 145.638 267.143 145.731 267.086C145.823 267.029 145.929 266.999 146.038 267C146.146 267 146.252 267.031 146.344 267.089C146.436 267.146 146.51 267.228 146.557 267.326L149.477 273.316C149.519 273.4 149.581 273.472 149.657 273.528C149.733 273.583 149.82 273.62 149.913 273.634L156.507 274.623C156.614 274.639 156.715 274.684 156.797 274.755C156.879 274.824 156.94 274.916 156.973 275.019C157.006 275.122 157.009 275.233 156.982 275.337C156.955 275.442 156.899 275.537 156.821 275.612L152.027 280.242C151.959 280.307 151.908 280.387 151.878 280.476C151.849 280.565 151.841 280.66 151.857 280.752L152.956 287.326C152.973 287.433 152.96 287.542 152.919 287.642C152.877 287.742 152.809 287.829 152.721 287.891C152.632 287.954 152.529 287.992 152.421 287.999C152.313 288.006 152.205 287.983 152.109 287.932Z" stroke="#171717" stroke-width="1.8" stroke-linecap="round" stroke-linejoin="round"/>
<path d="M211 369V383.582C211.001 384.223 210.747 384.837 210.296 385.29C209.844 385.744 209.232 385.999 208.592 386H199" stroke="#171717" stroke-width="3.8" stroke-linecap="square" stroke-linejoin="round"/>
<path d="M209.132 438H180.868C180.371 437.999 179.896 437.812 179.546 437.479C179.196 437.146 178.999 436.694 179 436.224V407.771C179 407.301 179.196 406.851 179.547 406.519C179.897 406.187 180.372 406 180.868 406H209.132C209.628 406 210.103 406.187 210.453 406.519C210.803 406.851 211 407.301 211 407.771V436.224C211 436.694 210.804 437.146 210.454 437.479C210.104 437.812 209.628 437.999 209.132 438Z" stroke="#171717" stroke-width="3.8" stroke-linecap="round" stroke-linejoin="round"/>
<path d="M211.428 356.47L241.736 327.104C241.736 327.104 225.148 350.475 211.428 369.857V356.47Z" fill="#01A74D"/>
<path d="M211.428 356.47V369.857C207.055 376.043 202.965 381.822 199.801 386.303H188.919C183.823 375.434 176.301 358.563 176.135 358.175L193.942 373.415L211.428 356.47Z" fill="#01A74D"/>
<path d="M188.919 386.304H199.801C196.053 391.622 193.603 395.118 193.505 395.315C193.362 395.604 191.437 391.689 188.919 386.304Z" fill="#01A74D"/>
<path d="M253.848 359.511C253.885 359.597 253.916 359.677 253.953 359.763C255.664 363.709 261.08 365.506 264.816 363.36C266.694 362.283 268.029 360.467 269.765 359.162C271.501 357.857 274.074 357.161 275.76 358.534C277.422 359.888 277.404 362.608 279.047 364C280.709 365.403 283.417 364.732 284.906 363.144C286.396 361.557 286.987 359.347 287.522 357.229C291.929 363.126 300.829 365.083 307.304 361.587" stroke="#171717" stroke-width="3.8" stroke-linecap="round" stroke-linejoin="round"/>
<path d="M253.849 359.511C256.515 356.735 258.227 353.182 258.736 349.367C254.711 350.604 252.341 355.596 253.849 359.511Z" stroke="#171717" stroke-width="3.8" stroke-linecap="round" stroke-linejoin="round"/>
<path d="M234.516 363.727C237.047 364.702 239.765 365.096 242.469 364.879C245.173 364.661 247.794 363.838 250.137 362.471C251.505 361.662 252.754 360.665 253.848 359.511" stroke="#171717" stroke-width="3.8" stroke-linecap="round" stroke-linejoin="round"/>
<path d="M299.39 414.918C299.474 415.592 299.674 416.245 299.981 416.851C300.578 417.977 301.846 418.851 303.095 418.6C304.345 418.349 305.151 416.612 304.283 415.677" stroke="#171717" stroke-width="3.8" stroke-linecap="round" stroke-linejoin="round"/>
<path d="M299.39 414.917C299.428 414.314 299.381 413.709 299.249 413.119C299.265 413.72 299.312 414.32 299.39 414.917Z" stroke="#171717" stroke-width="3.8" stroke-linecap="round" stroke-linejoin="round"/>
<path d="M291.788 425.117C293.437 423.732 295.167 422.444 296.608 420.851C298.097 419.202 299.26 417.084 299.39 414.918" stroke="#171717" stroke-width="3.8" stroke-linecap="round" stroke-linejoin="round"/>
<path d="M291.788 425.117C292.24 431.268 291.774 437.452 290.403 443.465C289.837 445.934 288.206 448.962 285.738 448.422C283.745 447.979 283.065 445.48 283.048 443.437C283.041 440.271 283.675 437.136 284.912 434.222C286.148 431.308 287.962 428.674 290.243 426.479C290.742 426.004 291.259 425.554 291.788 425.117Z" stroke="#171717" stroke-width="3.8" stroke-linecap="round" stroke-linejoin="round"/>
<path d="M255.584 426.02C255.646 426.032 255.714 426.045 255.775 426.051C258.373 426.391 261.001 425.251 262.94 423.496C267.143 425.103 271.489 421.792 274.776 418.714C274.259 421.397 276.795 424.007 279.521 424.217C282.248 424.426 284.839 422.739 286.464 420.536C288.089 418.332 288.92 415.661 289.72 413.045C290.808 416.99 291.501 421.033 291.788 425.115" stroke="#171717" stroke-width="3.8" stroke-linecap="round" stroke-linejoin="round"/>
<path d="M255.584 426.021C257.023 425.172 258.107 423.832 258.637 422.248C259.415 419.663 257.8 416.388 255.122 416.068C252.525 415.754 250.186 418.468 250.476 421.073C250.753 423.609 253.067 425.622 255.584 426.021Z" stroke="#171717" stroke-width="3.8" stroke-linecap="round" stroke-linejoin="round"/>
<path d="M229.918 426.73C234.836 426.816 239.75 427.051 244.659 427.438C247.349 427.647 250.102 427.899 252.716 427.243C253.73 426.992 254.698 426.581 255.583 426.024" stroke="#171717" stroke-width="3.8" stroke-linecap="round" stroke-linejoin="round"/>
<path d="M227.034 189.418C228.506 198.008 231.369 206.301 235.51 213.97C238.631 219.746 242.705 225.346 248.569 228.297C254.434 231.248 262.413 230.781 266.653 225.77C270.225 221.545 270.333 215.432 269.702 209.935C268.646 200.785 266.063 191.876 262.059 183.581" stroke="#171717" stroke-width="3.8" stroke-linecap="round" stroke-linejoin="round"/>
<path d="M317.14 283.757C315.887 299.353 316.6 315.045 319.263 330.464" stroke="#171717" stroke-width="3.8" stroke-linecap="round" stroke-linejoin="round"/>
<path d="M123.459 298.329C109.362 308.104 102.115 326.818 105.952 343.538" stroke="#171717" stroke-width="3.8" stroke-linecap="round" stroke-linejoin="round"/>
<path d="M377.071 165.914C378.08 169.911 379.089 173.909 380.097 177.906C385.28 171.547 391.072 165.71 397.391 160.478" stroke="#8FC1A9" stroke-width="3.8" stroke-linecap="round" stroke-linejoin="round"/>
<path d="M106.775 176.532C108.896 177.146 110.871 178.18 112.582 179.575C114.293 180.969 115.706 182.695 116.734 184.648C119.634 174.117 123.538 163.887 128.392 154.101" stroke="#8FC1A9" stroke-width="3.8" stroke-linecap="round" stroke-linejoin="round"/>
<path d="M304.035 107.635L314.75 99.6162" stroke="#8FC1A9" stroke-width="3.8" stroke-linecap="round" stroke-linejoin="round"/>
<path d="M311.863 109.885L306.72 99.4229" stroke="#8FC1A9" stroke-width="3.8" stroke-linecap="round" stroke-linejoin="round"/>
<path d="M258.643 62.8813L266.467 58.54" stroke="#8FC1A9" stroke-width="3.8" stroke-linecap="round" stroke-linejoin="round"/>
<path d="M263.321 64.7476C261.915 61.8317 260.507 58.9159 259.1 56" stroke="#8FC1A9" stroke-width="3.8" stroke-linecap="round" stroke-linejoin="round"/>
<path d="M322.194 76.1154L328.618 82.8462C332.498 76.6605 336.79 70.7433 341.466 65.1348" stroke="#8FC1A9" stroke-width="3.8" stroke-linecap="round" stroke-linejoin="round"/>
<g opacity="0.1">
<path d="M233.835 123.989C236.389 128.579 237.223 134.379 233.779 138.654C231.995 140.868 229.891 142.614 228.859 145.349C227.626 148.624 228.249 151.992 228.677 155.36L229.937 165.283C230.383 168.787 231.298 172.141 231.984 175.599C233.267 182.057 234.063 188.936 237.469 194.682C237.489 194.716 237.52 194.743 237.556 194.76C237.592 194.777 237.632 194.784 237.672 194.778C237.711 194.774 237.749 194.757 237.779 194.731C237.809 194.706 237.832 194.672 237.843 194.634C239.752 188.051 238.713 181.004 238.353 174.261C238.158 170.603 238.133 167.033 237.672 163.393C237.231 159.929 236.79 156.464 236.35 152.998C235.942 149.817 235.169 146.875 236.788 143.934C238.139 141.486 239.218 139.341 239.808 136.578C240.892 131.505 239.662 126.038 235.657 122.582C234.682 121.74 233.166 122.791 233.833 123.991L233.835 123.989Z" fill="#171717"/>
</g>
<g opacity="0.1">
<path d="M144.56 226.291C139.914 227.332 136 230.494 132.332 233.421C128.6 236.401 124.987 239.535 121.556 242.859C114.609 249.573 108.573 257.169 103.604 265.454C93.7744 281.951 89.1843 301.869 93.8098 320.763C96.2135 330.579 101.029 340.325 108.696 347.092C113.342 351.194 119.199 345.085 115.397 340.391C105.289 327.911 100.728 312.253 102.946 296.27C105.34 279.025 114.478 263.598 126.06 250.928C129.468 247.203 133.062 243.654 136.83 240.294C140.487 237.027 144.702 233.991 147.184 229.704C148.236 227.889 146.503 225.855 144.56 226.291L144.56 226.291Z" fill="#171717"/>
</g>
<g opacity="0.1">
<path d="M308.937 298.146C309.597 295.841 310.445 294.116 312.867 293.167C315.185 292.259 318.129 292.109 320.591 292.02C327.046 291.785 333.049 291.769 339.032 289.027C343.992 286.772 348.203 283.147 351.171 278.578C352.62 276.33 353.653 273.84 354.221 271.226C354.714 268.655 355.178 265.454 353.406 263.34C353.004 262.939 352.479 262.682 351.915 262.609C351.351 262.536 350.779 262.651 350.287 262.937C348.36 264.178 347.482 267.034 346.351 269.005C345.176 271.042 343.792 272.951 342.22 274.7C338.956 278.367 334.966 280.969 330.11 281.934C324.116 283.126 317.023 281.535 311.74 285.401C308.25 287.953 304.364 293.603 306.129 298.149C306.626 299.432 308.516 299.629 308.94 298.149L308.937 298.146Z" fill="#171717"/>
</g>
<path d="M170.534 318.644L173.53 297.756L186.148 297.323L185.573 301.363L177.461 301.642L176.836 305.967L183.76 305.73L183.151 309.762L176.261 309.999L175.615 314.449L184.05 314.16L183.475 318.218L170.534 318.644Z" fill="#171717"/>
<path d="M189.117 297.222L194.112 297.05L196.618 311.409L196.846 311.401L203.484 296.729L208.411 296.56L198.07 317.718L193.447 317.877L189.117 297.222Z" fill="#171717"/>
<path d="M201.701 317.577L212.192 296.431L218.379 296.219L222.481 316.882L217.448 317.054L216.776 313.393L208.726 313.669L206.899 317.416L201.701 317.577ZM210.517 309.401L216.032 309.212L214.613 301.502L214.331 301.512L210.517 309.401Z" fill="#171717"/>
<path d="M119.263 504.236C119.186 504.613 119.146 504.973 119.141 505.315C119.129 506.305 119.406 507.172 119.991 507.882C120.754 508.827 121.918 509.31 123.484 509.311C126.85 509.353 128.87 507.56 129.504 504.346L131.059 496.571L128.198 496.535L126.661 504.292C126.354 505.783 125.389 506.653 123.931 506.635C123.194 506.607 122.656 506.403 122.355 505.985C122.143 505.694 122.04 505.315 122.045 504.865C122.048 504.667 122.068 504.469 122.107 504.254L123.662 496.478L120.8 496.443L119.263 504.236ZM130.996 505.067C130.938 505.372 130.898 505.677 130.894 505.965C130.883 506.847 131.162 507.607 131.73 508.226C132.494 509.028 133.623 509.438 135.135 509.457C138.753 509.502 140.863 507.728 140.9 504.758C140.948 500.924 135.12 502.04 135.141 500.294C135.151 499.484 135.95 498.936 137.084 498.95C137.642 498.957 138.072 499.106 138.357 499.38C138.57 499.599 138.675 499.87 138.671 500.194C138.67 500.266 138.669 500.356 138.65 500.446L141.476 500.481C141.515 500.229 141.536 499.996 141.539 499.762C141.545 499.204 141.444 498.698 141.215 498.264C140.6 497.032 139.294 496.439 137.512 496.417C135.946 496.398 134.663 496.796 133.681 497.612C132.717 498.41 132.217 499.501 132.2 500.851C132.151 504.775 137.854 503.604 137.832 505.404C137.82 506.322 136.949 506.869 135.636 506.853C134.934 506.844 134.414 506.675 134.076 506.365C133.809 506.11 133.687 505.784 133.691 505.406C133.693 505.316 133.694 505.208 133.713 505.101L130.996 505.067ZM150.048 509.409L150.528 506.966L145.201 506.9L145.738 504.224L150.094 504.279L150.592 501.855L146.219 501.8L146.737 499.197L151.867 499.261L152.347 496.836L144.374 496.737L141.877 509.307L150.048 509.409ZM154.827 509.468L155.787 504.638L160.395 504.695L160.875 502.271L156.268 502.214L156.844 499.323L161.973 499.387L162.454 496.962L154.48 496.863L151.983 509.433L154.827 509.468ZM162.748 504.779C162.671 505.156 162.631 505.515 162.626 505.857C162.614 506.847 162.891 507.715 163.476 508.424C164.239 509.37 165.403 509.852 166.969 509.854C170.335 509.896 172.355 508.103 172.989 504.889L174.544 497.113L171.683 497.078L170.146 504.835C169.839 506.325 168.874 507.195 167.416 507.177C166.679 507.15 166.141 506.945 165.84 506.527C165.628 506.237 165.525 505.857 165.53 505.408C165.533 505.21 165.553 505.012 165.592 504.796L167.147 497.021L164.285 496.985L162.748 504.779ZM182.187 509.81L182.704 507.278L177.773 507.216L179.752 497.178L176.908 497.143L174.411 509.713L182.187 509.81ZM188.788 505.788C188.73 506.093 188.69 506.399 188.687 506.686C188.676 507.568 188.954 508.328 189.523 508.947C190.287 509.749 191.416 510.159 192.927 510.178C196.545 510.223 198.655 508.449 198.692 505.479C198.74 501.646 192.912 502.761 192.934 501.015C192.944 500.205 193.743 499.657 194.877 499.671C195.435 499.678 195.865 499.828 196.149 500.101C196.363 500.32 196.467 500.591 196.463 500.915C196.462 500.987 196.461 501.077 196.442 501.167L199.268 501.202C199.307 500.951 199.328 500.717 199.331 500.483C199.338 499.925 199.236 499.42 199.008 498.985C198.393 497.753 197.086 497.161 195.304 497.138C193.738 497.119 192.455 497.517 191.473 498.333C190.509 499.131 190.009 500.222 189.993 501.572C189.944 505.496 195.647 504.325 195.624 506.125C195.613 507.043 194.742 507.59 193.428 507.574C192.726 507.565 192.206 507.396 191.868 507.086C191.601 506.831 191.479 506.505 191.484 506.127C191.485 506.037 191.486 505.929 191.506 505.822L188.788 505.788ZM200.253 505.049C200.215 508.09 202.276 510.294 205.732 510.337C209.457 510.384 212.237 508.312 213.082 505.569L209.968 505.53C209.322 506.764 207.908 507.628 206.27 507.608C204.398 507.585 203.243 506.382 203.265 504.6C203.242 502.134 205.411 499.929 207.768 500.03C209.352 500.05 210.439 500.963 210.513 502.242L213.609 502.281C213.589 499.509 211.744 497.343 208.306 497.301C206.021 497.272 203.94 498.146 202.536 499.569C201.15 500.974 200.279 502.943 200.253 505.049ZM217.014 510.244L217.994 505.27L223.033 505.333L222.035 510.307L224.897 510.343L227.394 497.773L224.532 497.737L223.571 502.603L218.532 502.541L219.511 497.674L216.667 497.639L214.17 510.209L217.014 510.244ZM235.541 510.475L236.022 508.033L230.694 507.967L231.232 505.291L235.587 505.346L236.086 502.922L231.712 502.867L232.23 500.263L237.36 500.327L237.84 497.903L229.867 497.804L227.37 510.373L235.541 510.475ZM242.228 510.559C246.764 510.615 249.792 507.413 249.847 503.003C249.866 501.509 249.395 500.315 248.452 499.404C247.509 498.474 246.165 498.007 244.455 497.986L239.974 497.93L237.477 510.499L242.228 510.559ZM242.319 500.425L243.831 500.444C245.45 500.464 246.862 501.31 246.837 503.308C246.82 504.694 246.373 505.858 245.516 506.765C244.658 507.673 243.591 508.11 242.313 508.094L240.819 508.075L242.319 500.425ZM251.247 505.883C251.17 506.26 251.13 506.619 251.125 506.961C251.113 507.951 251.39 508.819 251.975 509.528C252.738 510.474 253.902 510.956 255.468 510.958C258.834 511 260.854 509.207 261.488 505.993L263.043 498.217L260.182 498.182L258.645 505.939C258.338 507.429 257.373 508.3 255.915 508.281C255.177 508.254 254.64 508.049 254.339 507.632C254.127 507.341 254.024 506.962 254.029 506.512C254.032 506.314 254.052 506.116 254.091 505.9L255.646 498.125L252.784 498.089L251.247 505.883ZM270.686 510.914L271.203 508.382L266.272 508.321L268.251 498.282L265.407 498.247L262.91 510.817L270.686 510.914ZM280.749 511.039L281.229 508.597L275.902 508.531L276.439 505.855L280.795 505.91L281.293 503.486L276.919 503.431L277.438 500.827L282.567 500.891L283.048 498.467L275.074 498.368L272.577 510.937L280.749 511.039Z" fill="#171717"/>
<defs>
<radialGradient id="paint0_radial_606_540" cx="0" cy="0" r="1" gradientUnits="userSpaceOnUse" gradientTransform="translate(-68.2714 829.028) rotate(43.5281) scale(376.967 6842.92)">
<stop stop-color="#01A74D" stop-opacity="0.7"/>
<stop offset="0.915522" stop-color="#B1D3E3" stop-opacity="0.6"/>
</radialGradient>
</defs>
</svg>
